<svg width="200" height="116" viewBox="0 0 200 116" fill="none" xmlns="http://www.w3.org/2000/svg">
<path d="M31.71 46.9214C31.6841 46.74 31.5296 46.6361 31.4006 46.6361C31.2716 46.6361 28.717 46.5844 28.717 46.5844C28.717 46.5844 26.5757 44.5114 26.3694 44.2779C26.1628 44.0706 25.75 44.1227 25.5954 44.1744C25.5954 44.1744 25.1825 44.3037 24.5117 44.511C24.4082 44.1482 24.2278 43.7077 23.9956 43.241C23.2471 41.7899 22.1123 41.0125 20.7705 41.0125C20.6671 41.0125 20.5898 41.0125 20.4867 41.0383C20.4349 40.9866 20.4094 40.9349 20.3577 40.9086C19.7644 40.2867 19.0159 39.9756 18.1132 40.0015C16.3844 40.0532 14.6556 41.3232 13.2366 43.5522C12.2563 45.1329 11.5081 47.1028 11.276 48.6319C9.28917 49.2538 7.89565 49.6942 7.84425 49.6942C6.83809 50.0054 6.81222 50.0312 6.68322 50.9905C6.63182 51.7159 4 72.1644 4 72.1644L26.0856 76L35.6574 73.6159C35.6319 73.6159 31.7359 47.1028 31.71 46.9214ZM23.4024 44.8739C22.8863 45.0295 22.3186 45.2109 21.6994 45.4182C21.6994 44.5369 21.5704 43.2931 21.1834 42.2563C22.4993 42.4636 23.1443 43.9668 23.4024 44.8739ZM20.5384 45.7552C19.3094 46.1381 18.0794 46.5182 16.8487 46.8955C17.2102 45.522 17.8807 44.1741 18.7065 43.2669C19.0162 42.9303 19.455 42.5674 19.9448 42.3597C20.4608 43.3707 20.5646 44.7963 20.5384 45.7552ZM18.1646 41.1677C18.5775 41.1677 18.9131 41.2456 19.1966 41.4529C18.7323 41.6861 18.2677 42.049 17.8548 42.5153C16.7455 43.7077 15.8942 45.5479 15.5586 47.336C14.5011 47.673 13.469 47.9841 12.5401 48.269C13.1593 45.4441 15.5072 41.2456 18.1646 41.1677Z" fill="#95BF47"/>
<path d="M31.3971 46.6358C31.2681 46.6358 28.7135 46.584 28.7135 46.584C28.7135 46.584 26.5725 44.5103 26.3659 44.2772C26.2886 44.1995 26.1855 44.1475 26.082 44.1475V75.9993L35.6542 73.6151C35.6542 73.6151 31.7582 47.1021 31.7323 46.9207C31.6806 46.7392 31.5261 46.6358 31.3971 46.6358Z" fill="#5E8E3E"/>
<path d="M20.7686 51.5874L19.6593 55.7603C19.6593 55.7603 18.421 55.1901 16.9502 55.2936C14.783 55.4233 14.783 56.7968 14.783 57.1338C14.912 58.9998 19.788 59.4144 20.0722 63.7943C20.2785 67.2415 18.2661 69.5998 15.3249 69.7812C11.8159 69.9626 9.88086 67.8893 9.88086 67.8893L10.629 64.7015C10.629 64.7015 12.5899 66.1788 14.138 66.075C15.1442 66.0232 15.5312 65.1678 15.4798 64.598C15.3246 62.1618 11.3513 62.3173 11.0933 58.3C10.887 54.9308 13.0801 51.536 17.9305 51.2249C19.8138 51.0952 20.7686 51.5874 20.7686 51.5874Z" fill="white"/>
<path d="M140.452 58.127C140.452 56.6108 139.529 55.1906 137.318 55.1906C133.485 55.1906 130.773 60.2443 130.773 64.1131C130.773 66.6855 131.863 69.1493 134.998 69.1493C136.29 69.1746 137.564 68.8233 138.662 68.1383L138.297 67.1886C137.367 67.7725 136.292 68.0833 135.195 68.0855C133.767 68.0855 132.732 67.325 132.258 65.81C132.017 64.7055 131.978 63.5708 132.147 62.4542C136.532 62.4874 140.449 61.5398 140.449 58.1236L140.452 58.127ZM137.096 56.252C138.359 56.252 139.194 56.9241 139.194 58.1547V58.1825C139.194 60.8412 135.838 61.4266 132.34 61.3995C133.174 58.4903 135.027 56.252 137.096 56.252ZM151.53 55.4683H150.104L147.325 58.9659C146.68 59.7493 146.374 60.2295 145.808 61.0355H145.751C145.443 60.3354 145.193 59.6353 144.885 58.8549L143.485 55.4689H142.199L144.979 62.0387L139.42 68.8915H140.847L143.88 65.0861C144.402 64.4137 144.888 63.7135 145.335 62.9887H145.389C145.724 63.9387 145.917 64.4719 146.309 65.3667L147.737 68.8915H149.05L146.21 62.0441L151.524 55.4683H151.53ZM158.83 55.1906C157.041 55.1906 155.361 56.3374 154.147 58.1825H154.093L154.513 55.4686H153.366C153.2 56.6998 152.946 58.3234 152.608 60.0858L149.938 74.3812H151.142L152.207 68.59H152.264C153.097 69.0095 154.021 69.2147 154.95 69.1785C159.233 69.1785 162.338 64.0875 162.338 59.5577C162.335 57.3487 161.384 55.1939 158.837 55.1939L158.83 55.1906ZM155.055 68.1129C153.963 68.1129 153.069 67.8329 152.455 67.3555L153.319 62.731C154.077 58.675 156.563 56.242 158.466 56.242C160.452 56.242 161.069 58.0337 161.069 59.628C161.069 63.0795 158.608 68.1132 155.055 68.1132L155.055 68.1129ZM170.189 55.1906C166.355 55.1906 163.644 60.2443 163.644 64.1131C163.644 66.6855 164.735 69.1493 167.869 69.1493C169.162 69.1746 170.435 68.8234 171.532 68.1383L171.169 67.1886C170.238 67.7724 169.162 68.0824 168.063 68.0831C166.635 68.0831 165.602 67.3256 165.127 65.8106C164.886 64.7122 164.847 63.5774 165.013 62.4669C169.405 62.4941 173.321 61.5465 173.321 58.1303C173.319 56.6214 172.397 55.1939 170.189 55.1939V55.1906ZM172.061 58.1825C172.061 60.8412 168.705 61.4266 165.208 61.3995C166.047 58.4903 167.894 56.252 169.964 56.252C171.227 56.252 172.061 56.9241 172.061 58.1547V58.1825ZM177.125 58.4076H177.069C177.236 57.2322 177.35 56.3374 177.433 55.4713H176.344C176.232 56.6461 176.036 58.1571 175.701 59.8628L173.996 68.8991H175.2L176.486 62.0764C177.044 59.14 179.015 56.482 180.768 56.482C180.919 56.4729 181.067 56.482 181.215 56.5091L181.468 55.2235C181.329 55.2235 181.133 55.1933 180.964 55.1933C179.286 55.1873 177.946 56.6117 177.135 58.4043L177.125 58.4076ZM185.181 68.0858C184.342 68.0858 183.978 67.6105 183.978 66.8219C183.998 66.0407 184.092 65.2632 184.259 64.4997L185.734 56.5046H188.895L189.122 55.4686H185.965L186.553 52.5322L185.213 53.0634L184.767 55.4686H182.808L182.615 56.5067H184.546L183.031 64.5069C182.838 65.3127 182.736 66.1396 182.724 66.9695C182.724 68.0891 183.342 69.1514 184.936 69.1514C185.382 69.1514 185.823 69.085 186.252 68.9582L186.169 67.9804C185.852 68.071 185.523 68.1102 185.192 68.0921L185.181 68.0858ZM194.02 56.252C194.692 56.2678 195.349 56.4604 195.923 56.8103L196.37 55.7743C195.978 55.4658 195.084 55.1879 194.159 55.1879C191.781 55.1879 190.076 56.896 190.076 58.9934C190.076 60.2578 190.803 61.4559 192.145 62.322C193.409 63.1338 193.965 63.9456 193.965 65.2855C193.965 66.8246 192.762 68.0831 191 68.0831C190.158 68.08 189.338 67.8145 188.65 67.3256L188.175 68.3366C188.623 68.7017 189.692 69.1483 190.889 69.1483C193.21 69.1483 195.184 67.6666 195.184 64.9506C195.184 63.5805 194.399 62.3522 193.114 61.4831C192.021 60.7256 191.294 60.0285 191.294 58.7701C191.303 57.403 192.395 56.2562 194.019 56.2562L194.02 56.252Z" fill="white"/>
<path d="M51.3463 60.6652C50.3757 60.1438 49.879 59.6902 49.879 59.0779C49.879 58.3071 50.5788 57.8083 51.6622 57.8083C52.9264 57.8083 54.0551 58.3297 54.0551 58.3297L54.9354 55.6086C54.9354 55.6086 54.1227 54.9736 51.7301 54.9736C48.389 54.9736 46.0641 56.9011 46.0641 59.5993C46.0641 61.1414 47.1475 62.2979 48.5921 63.1368C49.7661 63.7944 50.1723 64.2706 50.1723 64.9735C50.1723 65.699 49.5856 66.2886 48.5019 66.2886C46.8991 66.2886 45.3642 65.4497 45.3642 65.4497L44.416 68.1706C44.416 68.1706 45.8157 69.123 48.1859 69.123C51.6173 69.123 54.1004 67.4224 54.1004 64.3612C54.0777 62.7059 52.8362 61.5268 51.3463 60.6652ZM65.026 54.9284C63.3329 54.9284 62.0011 55.7447 60.9853 56.9693L60.9401 56.9467L62.4074 49.2371H58.5925L54.8678 68.8737H58.6827L59.9469 62.1621C60.4433 59.6223 61.7528 58.0578 62.9717 58.0578C63.8294 58.0578 64.168 58.6472 64.168 59.4862C64.168 60.0077 64.123 60.6652 64.0101 61.1867L62.5655 68.8737H66.3804L67.8703 60.9374C68.0281 60.0985 68.141 59.1008 68.141 58.4206C68.1636 56.2435 67.035 54.9284 65.026 54.9284ZM76.8095 54.9284C72.2043 54.9284 69.1568 59.1005 69.1568 63.7491C69.1568 66.7196 70.9853 69.123 74.4167 69.123C78.9314 69.123 81.9788 65.064 81.9788 60.3025C82.0015 57.5587 80.3987 54.9284 76.8095 54.9284ZM74.9357 66.1978C73.6266 66.1978 73.0849 65.0869 73.0849 63.6809C73.0849 61.4816 74.2136 57.8988 76.2902 57.8988C77.6446 57.8988 78.096 59.0779 78.096 60.2117C78.096 62.5698 76.9447 66.1978 74.9357 66.1978ZM91.7757 54.9284C89.2024 54.9284 87.7351 57.2186 87.7351 57.2186H87.6899L87.9156 55.155H84.5295C84.3717 56.5384 84.0554 58.6699 83.7621 60.2569L81.0985 74.3157H84.9134L85.9742 68.6241H86.0647C86.0647 68.6241 86.8548 69.123 88.2995 69.123C92.7916 69.123 95.7261 64.4973 95.7261 59.8263C95.7261 57.2412 94.5748 54.9284 91.7757 54.9284ZM88.1187 66.2434C87.1255 66.2434 86.5385 65.6763 86.5385 65.6763L87.1708 62.0936C87.6223 59.6902 88.8638 58.1028 90.1956 58.1028C91.3695 58.1028 91.7305 59.1913 91.7305 60.2117C91.7305 62.7059 90.2632 66.2434 88.1187 66.2434ZM101.189 49.4184C99.9699 49.4184 98.9993 50.3932 98.9993 51.6404C98.9993 52.7742 99.7218 53.5679 100.805 53.5679H100.85C102.047 53.5679 103.063 52.7516 103.085 51.3459C103.085 50.2347 102.34 49.4184 101.189 49.4184ZM95.839 68.8508H99.6539L102.25 55.2458H98.4123L95.839 68.8508ZM111.979 55.2232H109.316L109.451 54.5883C109.677 53.2731 110.444 52.1167 111.731 52.1167C112.408 52.1167 112.95 52.3207 112.95 52.3207L113.695 49.305C113.695 49.305 113.04 48.9648 111.618 48.9648C110.264 48.9648 108.909 49.3502 107.871 50.2347C106.562 51.3456 105.952 52.9556 105.659 54.5883L105.546 55.2232H103.762L103.198 58.1254H104.981L102.95 68.8737H106.765L108.796 58.1257H111.437L111.979 55.2232ZM121.189 55.2458C121.189 55.2458 118.796 61.3002 117.735 64.6107H117.69C117.623 63.5448 116.742 55.2458 116.742 55.2458H112.724L115.027 67.7396C115.072 68.0118 115.049 68.1932 114.936 68.3749C114.485 69.2364 113.74 70.0754 112.859 70.6877C112.137 71.2092 111.325 71.5493 110.692 71.7759L111.753 75.0412C112.521 74.8825 114.146 74.2249 115.501 72.955C117.239 71.3224 118.864 68.7829 120.512 65.3362L125.185 55.2458H121.189Z" fill="white"/>
</svg>
