<svg width="188" height="116" viewBox="0 0 188 116" fill="none" xmlns="http://www.w3.org/2000/svg">
<path d="M43.3745 42.8883C43.3135 42.8272 43.3135 42.8883 43.3745 42.8883L43.0691 42.705L43.0081 42.644L35.8006 37.513C35.8006 37.513 35.7395 37.513 35.7395 37.452L35.6174 37.3298L35.5563 37.2687H35.4341L33.3574 35.8027L37.4498 36.4136C37.633 36.4136 37.6941 36.4746 37.8773 36.5357C37.9384 36.5357 38.0606 36.5968 38.0606 36.5968C38.2438 36.6579 38.3049 36.719 38.4271 36.7801C38.5492 36.8411 38.6103 36.9022 38.7325 36.9633C38.7935 37.0244 38.9157 37.0855 38.9157 37.1465C38.9768 37.2076 39.0379 37.2076 39.0989 37.2687C39.2211 37.3298 39.2822 37.3909 39.2822 37.452C39.4654 37.6352 39.5876 37.8185 39.7708 37.9406L43.0081 42.5218L43.0691 42.5829L43.3745 42.8883Z" fill="#82CDF7"/>
<path d="M43.3779 49.9748L43.0725 49.4862L43.0114 49.4251L33.4219 35.8037L35.4986 37.2697L35.8651 37.514L43.0725 42.6449H43.1336L43.3779 42.8282C43.3779 42.8282 43.439 42.8282 43.439 42.8893L43.7444 42.6449L53.4561 35.8037L43.6833 49.4862L43.6222 49.5473L43.3779 49.9748Z" fill="#82CDF7"/>
<path d="M43.3736 40.5675L43.0682 40.0788L43.0071 40.0177L40.625 36.7193L43.0071 37.2079H43.0682L43.3736 37.269L43.679 37.2079L46 36.6582L43.679 40.0788V40.1399L43.3736 40.5675Z" fill="#82CDF7"/>
<path d="M53.5123 35.7422L50.4583 36.1698L49.2978 36.353C48.3816 36.4752 47.5265 36.9638 46.9768 37.7579L43.7395 42.4002L43.6784 42.4613L43.373 42.8888L43.7395 42.5223L43.8006 42.4613L43.373 42.8888L51.6189 37.0249L53.5123 35.7422Z" fill="#82CDF7"/>
<path d="M44.898 26.0925C44.898 28.7801 40.2559 30.185 40.2559 33.0559C40.1948 33.7278 40.378 34.3997 40.6834 35.0106C40.6834 35.0106 38.9121 33.3002 38.9121 31.4678C38.9121 29.6353 40.6224 26.8866 40.6224 26.8866C40.6224 28.1082 41.111 28.4747 41.5996 28.5358H41.6607C42.2104 28.5358 42.5158 28.1082 42.5158 27.4974C42.5158 26.8866 41.844 26.2758 41.844 25.0541C41.844 23.8936 43.3099 22 43.3099 22C44.3482 23.2216 44.898 24.6265 44.898 26.0925Z" fill="#82CDF7"/>
<path d="M43.6181 35.8673C42.1522 35.8673 41.0527 34.7067 41.0527 33.3019V33.2408C41.0527 30.1256 45.3894 29.8202 45.3894 25.6055C45.5116 25.7887 46.6721 27.3769 46.6721 29.0872C46.6721 31.2251 44.6565 31.7748 44.6565 32.8132C44.6565 33.2408 44.8397 33.5462 45.4505 33.5462C45.5116 33.5462 45.5727 33.5462 45.6337 33.4851C46.7943 32.9964 47.5883 31.897 47.6494 30.6142C47.6494 30.6753 48.2602 35.8673 43.6181 35.8673Z" fill="#82CDF7"/>
<path d="M45.5117 33.5462C45.5728 33.5462 45.6339 33.5462 45.695 33.4851C45.0842 33.6683 42.8242 34.2181 42.8242 32.6299C42.8242 30.6753 46.1836 30.2477 46.1836 28.5985C46.1836 27.5601 45.9393 26.5217 45.3896 25.6055C45.5117 25.7887 46.6723 27.3769 46.6723 29.0872C46.6723 31.225 44.6566 31.7748 44.6566 32.8132C44.7177 33.2408 44.962 33.5462 45.5117 33.5462Z" fill="#82CDF7"/>
<path d="M43.6802 27.192C43.6802 28.7191 41.7257 28.5969 41.6035 28.5358H41.7868C42.3365 28.5358 42.6419 28.1082 42.6419 27.4974C42.6419 26.8866 41.97 26.2758 41.97 25.0541C41.97 23.8936 43.4359 22 43.4359 22C42.9473 22.7941 42.703 23.6492 42.6419 24.5044C42.6419 25.9093 43.6802 26.0314 43.6802 27.192Z" fill="#82CDF7"/>
<path d="M42.457 53.8838L41.1133 52.9676H42.7624L43.3122 51.3184L43.8008 52.9676H45.45L44.1062 53.8838L44.5948 55.472L43.2511 54.4946L41.8462 55.472L42.457 53.8838Z" fill="#82CDF7"/>
<path d="M49.4844 53.8838L48.1406 52.9676H49.7898L50.3395 51.3184L50.8281 52.9676H52.4773L51.1335 53.8838L51.6222 55.472L50.2784 54.4946L48.8736 55.472L49.4844 53.8838Z" fill="#82CDF7"/>
<path d="M35.4961 53.8848L34.1523 52.9686H35.8015L36.3512 51.3193L36.8399 52.9686H38.489L37.1453 53.8848L37.6339 55.4729L36.2901 54.4956L34.9464 55.4729L35.4961 53.8848Z" fill="#82CDF7"/>
<path fill-rule="evenodd" clip-rule="evenodd" d="M77.5772 35.4611C78.2094 35.7015 78.8905 35.8217 79.6205 35.8217C80.4129 35.8217 81.1029 35.7104 81.6905 35.4878C82.2782 35.2563 82.8079 34.9358 83.2798 34.5262L81.4902 32.7366C81.2587 32.977 80.9827 33.1595 80.6622 33.2842C80.3506 33.4088 79.9945 33.4712 79.5938 33.4712C79.2377 33.4712 78.9083 33.4133 78.6056 33.2976C78.3118 33.1729 78.058 32.9993 77.8443 32.7767C77.6307 32.5541 77.4615 32.287 77.3369 31.9754C77.2211 31.6548 77.1632 31.2943 77.1632 30.8936C77.1632 30.5018 77.2211 30.1501 77.3369 29.8385C77.4615 29.518 77.6307 29.2464 77.8443 29.0238C78.058 28.8013 78.3118 28.6321 78.6056 28.5163C78.9083 28.4006 79.2377 28.3427 79.5938 28.3427C80.0034 28.3427 80.3595 28.4095 80.6622 28.5431C80.9738 28.6766 81.2365 28.8591 81.4501 29.0906L83.2263 27.301C82.7723 26.8914 82.2381 26.5709 81.6238 26.3394C81.0094 26.1079 80.3328 25.9922 79.5938 25.9922C78.8638 25.9922 78.1871 26.1168 77.5639 26.3661C76.9407 26.6065 76.3931 26.9449 75.9212 27.3811C75.4583 27.8174 75.0932 28.3338 74.8262 28.9304C74.568 29.5269 74.4389 30.1813 74.4389 30.8936C74.4389 31.597 74.568 32.2514 74.8262 32.8568C75.0932 33.4534 75.4627 33.9742 75.9346 34.4194C76.4065 34.8646 76.954 35.2118 77.5772 35.4611ZM67.9766 26.1525L64.3574 35.6614H67.0818L67.6222 34.0588H70.9751L71.5023 35.6614H74.2801L70.701 26.1525H67.9766ZM70.2899 31.9754L69.3195 29.025L68.3247 31.9754H70.2899ZM88.862 35.8217C88.1319 35.8217 87.4508 35.7015 86.8187 35.4611C86.1955 35.2118 85.6479 34.8646 85.176 34.4194C84.7042 33.9742 84.3347 33.4534 84.0676 32.8568C83.8094 32.2514 83.6803 31.597 83.6803 30.8936C83.6803 30.1813 83.8094 29.5269 84.0676 28.9304C84.3347 28.3338 84.6997 27.8174 85.1627 27.3811C85.6346 26.9449 86.1821 26.6065 86.8053 26.3661C87.4286 26.1168 88.1052 25.9922 88.8353 25.9922C89.5742 25.9922 90.2509 26.1079 90.8652 26.3394C91.4795 26.5709 92.0137 26.8914 92.4678 27.301L90.6916 29.0906C90.4779 28.8591 90.2153 28.6766 89.9037 28.5431C89.6009 28.4095 89.2448 28.3427 88.8353 28.3427C88.4791 28.3427 88.1497 28.4006 87.847 28.5163C87.5532 28.6321 87.2995 28.8013 87.0858 29.0238C86.8721 29.2464 86.7029 29.518 86.5783 29.8385C86.4626 30.1501 86.4047 30.5018 86.4047 30.8936C86.4047 31.2943 86.4626 31.6548 86.5783 31.9754C86.7029 32.287 86.8721 32.5541 87.0858 32.7767C87.2995 32.9993 87.5532 33.1729 87.847 33.2976C88.1497 33.4133 88.4791 33.4712 88.8353 33.4712C89.2359 33.4712 89.592 33.4088 89.9037 33.2842C90.2242 33.1595 90.5002 32.977 90.7317 32.7366L92.5212 34.5262C92.0493 34.9358 91.5196 35.2563 90.932 35.4878C90.3444 35.7104 89.6544 35.8217 88.862 35.8217ZM96.4517 31.8685V35.6614H93.7807V26.1525H95.9442H96.4517H97.9875C98.6463 26.1525 99.2251 26.2726 99.7236 26.513C100.222 26.7534 100.614 27.0873 100.899 27.5147C101.184 27.9421 101.326 28.4407 101.326 29.0105C101.326 29.5803 101.179 30.0789 100.886 30.5063C100.601 30.9337 100.2 31.2675 99.6836 31.5079C99.5182 31.5849 99.3432 31.6496 99.1586 31.7019L101.941 35.6614H98.909L96.4886 31.8685H96.4517ZM96.4517 30.0255H97.5602C97.9252 30.0255 98.2012 29.9365 98.3881 29.7584C98.584 29.5803 98.682 29.3444 98.682 29.0506C98.682 28.7567 98.584 28.5208 98.3881 28.3427C98.2012 28.1647 97.9252 28.0756 97.5602 28.0756H96.4517V30.0255ZM102.944 35.6614V26.1525H105.107H105.615H110.129V28.3694H105.615V29.7317H109.715V31.8952H105.615V33.4445H110.209V35.6614H105.615H105.107H102.944ZM115.814 33.391H114.478V28.4229H115.814C116.312 28.4229 116.74 28.5163 117.096 28.7033C117.461 28.8814 117.741 29.1529 117.937 29.518C118.142 29.883 118.244 30.3416 118.244 30.8936C118.244 31.4456 118.146 31.9086 117.95 32.2825C117.755 32.6565 117.474 32.937 117.109 33.1239C116.744 33.302 116.312 33.391 115.814 33.391ZM114.478 26.1525H115.814C116.561 26.1525 117.247 26.2637 117.87 26.4863C118.502 26.7089 119.05 27.0295 119.513 27.4479C119.976 27.8664 120.332 28.3694 120.581 28.9571C120.839 29.5358 120.969 30.1858 120.969 30.9069C120.969 31.6281 120.839 32.2825 120.581 32.8702C120.332 33.4489 119.976 33.9475 119.513 34.366C119.05 34.7844 118.507 35.105 117.884 35.3276C117.26 35.5502 116.579 35.6614 115.84 35.6614H114.478H113.597H111.807V26.1525H113.463H114.478ZM122.392 26.1525H125.063V35.6614H122.392V26.1525ZM129.248 28.4229V35.6614H131.919V28.4229H134.777V26.1525H131.919H129.248H126.403V28.4229H129.248ZM136.115 26.1525H138.278H138.785H143.299V28.3694H138.785V29.7317H142.885V31.8952H138.785V33.4445H143.38V35.6614H138.785H138.278H136.115V26.1525ZM148.984 33.391H147.649V28.4229H148.984C149.483 28.4229 149.91 28.5163 150.266 28.7033C150.631 28.8814 150.912 29.1529 151.108 29.518C151.312 29.883 151.415 30.3416 151.415 30.8936C151.415 31.4456 151.317 31.9086 151.121 32.2825C150.925 32.6565 150.645 32.937 150.28 33.1239C149.915 33.302 149.483 33.391 148.984 33.391ZM147.649 26.1525H148.984C149.732 26.1525 150.418 26.2637 151.041 26.4863C151.673 26.7089 152.221 27.0295 152.683 27.4479C153.146 27.8664 153.503 28.3694 153.752 28.9571C154.01 29.5358 154.139 30.1858 154.139 30.9069C154.139 31.6281 154.01 32.2825 153.752 32.8702C153.503 33.4489 153.146 33.9475 152.683 34.366C152.221 34.7844 151.677 35.105 151.054 35.3276C150.431 35.5502 149.75 35.6614 149.011 35.6614H147.649H146.767H144.978V26.1525H146.634H147.649ZM84.6554 54.1481C85.6258 54.5171 86.6782 54.7017 87.8126 54.7017C89.3297 54.7017 90.6555 54.3805 91.7899 53.7381C92.938 53.0957 93.8264 52.1594 94.4551 50.9293C95.0975 49.6991 95.4187 48.2093 95.4187 46.4598V45.8447H87.3206V49.1251L90.9807 49.2356C90.9518 49.3027 90.9208 49.3683 90.8878 49.4326C90.6281 49.9657 90.2455 50.3757 89.7397 50.6627C89.234 50.9498 88.6122 51.0933 87.8741 51.0933C87.1087 51.0933 86.439 50.9293 85.865 50.6012C85.2909 50.2732 84.8399 49.8153 84.5119 49.2276C84.1975 48.6262 84.0403 47.9291 84.0403 47.1363C84.0403 46.3436 84.2112 45.6533 84.5529 45.0656C84.9082 44.4779 85.3798 44.0268 85.9675 43.7125C86.5552 43.3844 87.2112 43.2204 87.9356 43.2204C88.701 43.2204 89.3571 43.3639 89.9038 43.651C90.4505 43.938 90.9767 44.3754 91.4824 44.9631L94.2501 42.1953C93.5804 41.4026 92.7056 40.7738 91.6259 40.3091C90.5598 39.8444 89.3502 39.612 87.9971 39.612C86.8764 39.612 85.824 39.8034 84.8399 40.1861C83.8558 40.5551 82.9879 41.0813 82.2362 41.7648C81.4982 42.4345 80.9173 43.2272 80.4936 44.143C80.0836 45.0588 79.8785 46.0634 79.8785 47.1568C79.8785 48.2366 80.0767 49.2344 80.4731 50.1502C80.8694 51.0659 81.423 51.8655 82.1337 52.5489C82.8581 53.2323 83.6986 53.7654 84.6554 54.1481ZM69.9581 39.8581L64.4022 54.4556H68.5845L69.414 51.9954H74.5612L75.3705 54.4556H79.6348L74.1404 39.8581H69.9581ZM73.5093 48.797L72.0196 44.2679L70.4924 48.797H73.5093ZM97.4662 54.4556V39.8581H100.787H101.567H108.496V43.2614H101.567V45.3526H107.861V48.674H101.567V51.0523H108.619V54.4556H101.567H100.787H97.4662ZM111.073 39.8581V54.4556H115.173V46.984L121.118 54.4556H124.193V39.8581H120.093V47.5873L113.943 39.8581H111.073ZM134.338 54.7017C133.217 54.7017 132.172 54.5171 131.201 54.1481C130.244 53.7654 129.404 53.2323 128.679 52.5489C127.955 51.8655 127.388 51.0659 126.978 50.1502C126.581 49.2207 126.383 48.2161 126.383 47.1363C126.383 46.0429 126.581 45.0383 126.978 44.1225C127.388 43.2067 127.948 42.414 128.659 41.7443C129.383 41.0745 130.224 40.5551 131.181 40.1861C132.137 39.8034 133.176 39.612 134.297 39.612C135.431 39.612 136.47 39.7897 137.413 40.1451C138.356 40.5005 139.176 40.9925 139.873 41.6212L137.147 44.3685C136.819 44.0132 136.415 43.733 135.937 43.5279C135.472 43.3229 134.926 43.2204 134.297 43.2204C133.75 43.2204 133.244 43.3093 132.78 43.4869C132.329 43.6646 131.939 43.9243 131.611 44.266C131.283 44.6077 131.023 45.0246 130.832 45.5167C130.654 45.9951 130.566 46.5349 130.566 47.1363C130.566 47.7514 130.654 48.305 130.832 48.797C131.023 49.2754 131.283 49.6855 131.611 50.0272C131.939 50.3689 132.329 50.6354 132.78 50.8267C133.244 51.0044 133.75 51.0933 134.297 51.0933C134.912 51.0933 135.459 50.9976 135.937 50.8062C136.429 50.6149 136.853 50.3347 137.208 49.9657L139.955 52.713C139.231 53.3417 138.418 53.8337 137.516 54.1891C136.613 54.5308 135.554 54.7017 134.338 54.7017ZM149.365 48.4506V54.4556H145.265V48.62L140.181 39.8581H144.896L147.336 44.3924L149.775 39.8581H154.388L149.365 48.4506Z" fill="white"/>
<path fill-rule="evenodd" clip-rule="evenodd" d="M19.2568 62.9912H169.774V82.9056H19.2568V62.9912ZM16.876 84.1768V70.4592H3L8.29618 81.052L3 91.6447H21.4307V84.1768H16.876ZM172.107 70.4592V81.7934L166.387 86.7191V91.6447H185.983L180.687 81.052L185.983 70.4592H172.107Z" fill="#82CDF7"/>
<path d="M85.1923 93.2387L87.1519 91.2437C87.2459 91.1403 87.3235 91.0487 87.3846 90.9688C87.4457 90.8842 87.488 90.8066 87.5114 90.7362C87.5396 90.661 87.5537 90.5834 87.5537 90.5035C87.5537 90.3249 87.495 90.1839 87.3775 90.0806C87.2647 89.9772 87.1143 89.9255 86.9264 89.9255C86.7478 89.9255 86.5857 89.9772 86.44 90.0806C86.2943 90.1792 86.1439 90.3461 85.9888 90.5811L85.1641 89.8479C85.3661 89.5189 85.6246 89.2699 85.9395 89.1007C86.2543 88.9268 86.6162 88.8398 87.0251 88.8398C87.3869 88.8398 87.6994 88.9056 87.9626 89.0372C88.2258 89.1688 88.4278 89.3568 88.5688 89.6012C88.7145 89.8409 88.7874 90.1252 88.7874 90.4542C88.7874 90.6516 88.7615 90.8348 88.7098 91.004C88.6581 91.1685 88.5759 91.333 88.4631 91.4975C88.3503 91.6573 88.1999 91.8265 88.0119 92.0051L86.7149 93.2669L85.1923 93.2387ZM85.1923 93.9225V93.2387L86.2426 92.8721H88.8931V93.9225H85.1923Z" fill="white"/>
<path d="M92.0383 94.0001C91.62 94.0001 91.2464 93.892 90.9174 93.6758C90.5885 93.4549 90.3276 93.1494 90.135 92.7593C89.947 92.3693 89.853 91.9205 89.853 91.4129C89.853 90.91 89.947 90.4659 90.135 90.0806C90.3229 89.6905 90.5791 89.3874 90.9033 89.1712C91.2323 88.9503 91.6036 88.8398 92.0171 88.8398C92.4401 88.8398 92.816 88.9503 93.145 89.1712C93.4739 89.3874 93.7324 89.6905 93.9204 90.0806C94.1084 90.4659 94.2024 90.9147 94.2024 91.427C94.2024 91.9346 94.1084 92.3834 93.9204 92.7734C93.7324 93.1588 93.4739 93.4596 93.145 93.6758C92.8207 93.892 92.4518 94.0001 92.0383 94.0001ZM92.0242 92.9144C92.2168 92.9144 92.3813 92.858 92.5176 92.7453C92.6539 92.6278 92.7573 92.4586 92.8278 92.2377C92.903 92.0168 92.9406 91.7442 92.9406 91.42C92.9406 91.1004 92.903 90.8301 92.8278 90.6093C92.7573 90.3884 92.6539 90.2215 92.5176 90.1087C92.3813 89.9913 92.2145 89.9325 92.0171 89.9325C91.8338 89.9325 91.674 89.9889 91.5378 90.1017C91.4015 90.2145 91.2957 90.3813 91.2205 90.6022C91.1501 90.8231 91.1148 91.0933 91.1148 91.4129C91.1148 91.7372 91.1501 92.0121 91.2205 92.2377C91.2957 92.4586 91.4015 92.6278 91.5378 92.7453C91.674 92.858 91.8362 92.9144 92.0242 92.9144Z" fill="white"/>
<path d="M95.111 93.2387L97.0707 91.2437C97.1647 91.1403 97.2422 91.0487 97.3033 90.9688C97.3644 90.8842 97.4067 90.8066 97.4302 90.7362C97.4584 90.661 97.4725 90.5834 97.4725 90.5035C97.4725 90.3249 97.4137 90.1839 97.2962 90.0806C97.1835 89.9772 97.0331 89.9255 96.8451 89.9255C96.6665 89.9255 96.5044 89.9772 96.3587 90.0806C96.213 90.1792 96.0626 90.3461 95.9076 90.5811L95.0828 89.8479C95.2849 89.5189 95.5433 89.2699 95.8582 89.1007C96.1731 88.9268 96.5349 88.8398 96.9438 88.8398C97.3056 88.8398 97.6182 88.9056 97.8813 89.0372C98.1445 89.1688 98.3466 89.3568 98.4876 89.6012C98.6332 89.8409 98.7061 90.1252 98.7061 90.4542C98.7061 90.6516 98.6802 90.8348 98.6285 91.004C98.5769 91.1685 98.4946 91.333 98.3818 91.4975C98.269 91.6573 98.1187 91.8265 97.9307 92.0051L96.6336 93.2669L95.111 93.2387ZM95.111 93.9225V93.2387L96.1613 92.8721H98.8118V93.9225H95.111Z" fill="white"/>
<path d="M101.386 94.0001C101.034 94.0001 100.709 93.9413 100.413 93.8238C100.117 93.7016 99.8657 93.5301 99.6589 93.3092L100.463 92.5197C100.547 92.6419 100.672 92.7429 100.836 92.8228C101.005 92.898 101.182 92.9356 101.365 92.9356C101.52 92.9356 101.656 92.9097 101.774 92.858C101.896 92.8016 101.99 92.7241 102.056 92.6254C102.126 92.522 102.161 92.3998 102.161 92.2588C102.161 92.1178 102.126 91.998 102.056 91.8993C101.985 91.7959 101.884 91.7184 101.753 91.6667C101.626 91.615 101.473 91.5891 101.294 91.5891C101.2 91.5891 101.102 91.5962 100.998 91.6103C100.9 91.6197 100.82 91.6361 100.759 91.6596L101.308 90.9688C101.459 90.9312 101.595 90.9006 101.717 90.8771C101.844 90.8489 101.957 90.8348 102.056 90.8348C102.309 90.8348 102.537 90.8959 102.739 91.0181C102.942 91.1356 103.101 91.3048 103.219 91.5257C103.336 91.7419 103.395 91.998 103.395 92.2941C103.395 92.6325 103.313 92.9309 103.148 93.1894C102.984 93.4431 102.749 93.6429 102.443 93.7886C102.143 93.9296 101.79 94.0001 101.386 94.0001ZM100.759 91.6596V90.9688L101.922 89.6082H103.289L102.091 90.9688L100.759 91.6596ZM100.004 89.9748V88.9244H103.289V89.6082L102.338 89.9748H100.004Z" fill="white"/>
<rect x="33.4531" y="91.6963" width="45.9708" height="0.741492" fill="white"/>
<rect x="110.566" y="91.6963" width="45.9708" height="0.741492" fill="white"/>
<path d="M37.6279 77.6876V75.8377H39.9737C40.5457 75.8377 41.0461 75.726 41.475 75.5026C41.904 75.2703 42.2346 74.9351 42.467 74.4972C42.6993 74.0593 42.8155 73.541 42.8155 72.9422C42.8155 72.3435 42.6949 71.8296 42.4536 71.4006C42.2212 70.9717 41.8906 70.641 41.4616 70.4087C41.0416 70.1763 40.5457 70.0601 39.9737 70.0601H37.5609V68.2236H40.0005C40.7155 68.2236 41.3723 68.3398 41.971 68.5722C42.5787 68.7956 43.1059 69.1218 43.5528 69.5507C44.0085 69.9708 44.357 70.4712 44.5983 71.0521C44.8485 71.6241 44.9737 72.2586 44.9737 72.9556C44.9737 73.6438 44.8485 74.2783 44.5983 74.8592C44.357 75.44 44.013 75.9405 43.5662 76.3605C43.1193 76.7806 42.5921 77.1068 41.9844 77.3391C41.3857 77.5715 40.7333 77.6876 40.0273 77.6876H37.6279ZM36.207 77.6876V68.2236H38.3116V77.6876H36.207Z" fill="#1D2024"/>
<path d="M46.3129 77.6876V68.2236H48.4174V77.6876H46.3129ZM47.9214 77.6876V75.8645H53.109V77.6876H47.9214ZM47.9214 73.7331V71.9771H52.6398V73.7331H47.9214ZM47.9214 70.0333V68.2236H53.042V70.0333H47.9214Z" fill="#1D2024"/>
<path d="M57.166 77.8351C56.3885 77.8351 55.7183 77.71 55.1553 77.4598C54.6012 77.2006 54.0919 76.8118 53.6272 76.2935L54.9944 74.9396C55.2983 75.2881 55.6334 75.5607 55.9998 75.7573C56.3751 75.945 56.8085 76.0388 57.3 76.0388C57.7469 76.0388 58.0909 75.9584 58.3322 75.7975C58.5824 75.6367 58.7075 75.4132 58.7075 75.1273C58.7075 74.8681 58.6271 74.6581 58.4662 74.4972C58.3054 74.3364 58.0909 74.1978 57.8228 74.0817C57.5637 73.9655 57.2732 73.8538 56.9515 73.7465C56.6387 73.6393 56.326 73.5186 56.0132 73.3846C55.7004 73.2416 55.41 73.0673 55.1419 72.8618C54.8827 72.6473 54.6727 72.3837 54.5119 72.0709C54.351 71.7492 54.2706 71.347 54.2706 70.8644C54.2706 70.2835 54.4091 69.7831 54.6861 69.3631C54.9721 68.943 55.3653 68.6258 55.8657 68.4113C56.3662 68.1879 56.9426 68.0762 57.5949 68.0762C58.2562 68.0762 58.8594 68.1923 59.4046 68.4247C59.9586 68.6571 60.4144 68.9743 60.7718 69.3765L59.4046 70.7304C59.1186 70.4355 58.8282 70.2165 58.5333 70.0735C58.2473 69.9305 57.9211 69.8591 57.5547 69.8591C57.1883 69.8591 56.8979 69.9305 56.6834 70.0735C56.469 70.2076 56.3617 70.4042 56.3617 70.6634C56.3617 70.9047 56.4421 71.1013 56.603 71.2532C56.7639 71.3962 56.9739 71.5213 57.233 71.6285C57.5011 71.7358 57.7915 71.843 58.1043 71.9503C58.426 72.0575 58.7433 72.1826 59.056 72.3256C59.3688 72.4686 59.6548 72.6518 59.9139 72.8752C60.182 73.0897 60.3965 73.3667 60.5574 73.7063C60.7182 74.037 60.7986 74.4481 60.7986 74.9396C60.7986 75.8422 60.4769 76.5527 59.8335 77.071C59.1901 77.5804 58.3009 77.8351 57.166 77.8351Z" fill="#1D2024"/>
<path d="M62.1392 77.6876V68.2236H64.2437V77.6876H62.1392Z" fill="#1D2024"/>
<path d="M70.5301 77.8351C69.842 77.8351 69.1941 77.71 68.5864 77.4598C67.9877 77.2095 67.4649 76.8655 67.0181 76.4276C66.5713 75.9807 66.2183 75.4624 65.9591 74.8726C65.7089 74.2738 65.5838 73.6304 65.5838 72.9422C65.5838 72.2541 65.7134 71.6151 65.9725 71.0253C66.2317 70.4355 66.5891 69.9216 67.0449 69.4837C67.5096 69.0369 68.0502 68.6928 68.6668 68.4515C69.2835 68.2013 69.9448 68.0762 70.6507 68.0762C71.4639 68.0762 72.2012 68.2236 72.8625 68.5185C73.5327 68.8135 74.0868 69.2201 74.5247 69.7384L73.0904 71.1728C72.7865 70.7795 72.4291 70.4846 72.018 70.288C71.6069 70.0914 71.1422 69.9931 70.6239 69.9931C70.0699 69.9931 69.5739 70.1182 69.136 70.3684C68.6981 70.6097 68.3541 70.9538 68.1038 71.4006C67.8626 71.8385 67.7419 72.3524 67.7419 72.9422C67.7419 73.5321 67.8626 74.0504 68.1038 74.4972C68.3451 74.9441 68.6758 75.2926 69.0958 75.5428C69.5158 75.7931 69.9984 75.9182 70.5435 75.9182C71.0975 75.9182 71.5667 75.8154 71.951 75.6098C72.3442 75.3954 72.6435 75.0915 72.8491 74.6983C73.0636 74.2961 73.1708 73.8091 73.1708 73.2371L74.5649 74.1755L70.3424 74.1085V72.3256H75.3155V72.6339C75.3155 73.7689 75.11 74.7251 74.6989 75.5026C74.2968 76.2712 73.7338 76.8521 73.0099 77.2453C72.295 77.6385 71.4684 77.8351 70.5301 77.8351Z" fill="#1D2024"/>
<path d="M76.5911 77.6876V68.2236H78.0656L78.6956 70.1138V77.6876H76.5911ZM83.1191 77.6876L77.5428 70.5427L78.0656 68.2236L83.6419 75.3686L83.1191 77.6876ZM83.1191 77.6876L82.5561 75.7975V68.2236H84.6607V77.6876H83.1191Z" fill="#1D2024"/>
<path d="M90.6486 73.7868V72.2318H92.6459C93.0659 72.2318 93.3877 72.1245 93.6111 71.91C93.8434 71.6956 93.9596 71.4051 93.9596 71.0387C93.9596 70.6991 93.8479 70.4176 93.6245 70.1942C93.4011 69.9708 93.0793 69.8591 92.6593 69.8591H90.6486V68.2236H92.9006C93.5262 68.2236 94.0758 68.3443 94.5494 68.5856C95.023 68.8179 95.3939 69.1441 95.662 69.5641C95.9301 69.9842 96.0641 70.4668 96.0641 71.0119C96.0641 71.566 95.9301 72.053 95.662 72.4731C95.3939 72.8841 95.0185 73.2059 94.536 73.4382C94.0534 73.6706 93.486 73.7868 92.8336 73.7868H90.6486ZM89.0401 77.6876V68.2236H91.1446V77.6876H89.0401ZM94.1875 77.6876L91.2384 73.6125L93.1687 73.0897L96.6807 77.6876H94.1875Z" fill="#1D2024"/>
<path d="M101.382 77.8351C100.605 77.8351 99.9164 77.6698 99.3177 77.3391C98.7279 77.0084 98.2632 76.5527 97.9236 75.9718C97.5929 75.382 97.4276 74.7117 97.4276 73.961V68.2236H99.5455V74.0817C99.5455 74.457 99.626 74.7832 99.7868 75.0602C99.9477 75.3373 100.167 75.5518 100.444 75.7037C100.73 75.8467 101.042 75.9182 101.382 75.9182C101.739 75.9182 102.052 75.8467 102.32 75.7037C102.588 75.5518 102.798 75.3417 102.95 75.0736C103.111 74.7966 103.192 74.4704 103.192 74.0951V68.2236H105.31V73.9744C105.31 74.7251 105.144 75.3909 104.814 75.9718C104.483 76.5527 104.023 77.0084 103.433 77.3391C102.843 77.6698 102.159 77.8351 101.382 77.8351Z" fill="#1D2024"/>
<path d="M109.724 77.8351C108.947 77.8351 108.276 77.71 107.713 77.4598C107.159 77.2006 106.65 76.8118 106.185 76.2935L107.553 74.9396C107.856 75.2881 108.192 75.5607 108.558 75.7573C108.933 75.945 109.367 76.0388 109.858 76.0388C110.305 76.0388 110.649 75.9584 110.89 75.7975C111.141 75.6367 111.266 75.4132 111.266 75.1273C111.266 74.8681 111.185 74.6581 111.024 74.4972C110.864 74.3364 110.649 74.1978 110.381 74.0817C110.122 73.9655 109.831 73.8538 109.51 73.7465C109.197 73.6393 108.884 73.5186 108.571 73.3846C108.259 73.2416 107.968 73.0673 107.7 72.8618C107.441 72.6473 107.231 72.3837 107.07 72.0709C106.909 71.7492 106.829 71.347 106.829 70.8644C106.829 70.2835 106.967 69.7831 107.244 69.3631C107.53 68.943 107.923 68.6258 108.424 68.4113C108.924 68.1879 109.501 68.0762 110.153 68.0762C110.814 68.0762 111.418 68.1923 111.963 68.4247C112.517 68.6571 112.973 68.9743 113.33 69.3765L111.963 70.7304C111.677 70.4355 111.386 70.2165 111.091 70.0735C110.805 69.9305 110.479 69.8591 110.113 69.8591C109.746 69.8591 109.456 69.9305 109.242 70.0735C109.027 70.2076 108.92 70.4042 108.92 70.6634C108.92 70.9047 109 71.1013 109.161 71.2532C109.322 71.3962 109.532 71.5213 109.791 71.6285C110.059 71.7358 110.35 71.843 110.662 71.9503C110.984 72.0575 111.301 72.1826 111.614 72.3256C111.927 72.4686 112.213 72.6518 112.472 72.8752C112.74 73.0897 112.955 73.3667 113.116 73.7063C113.276 74.037 113.357 74.4481 113.357 74.9396C113.357 75.8422 113.035 76.5527 112.392 77.071C111.748 77.5804 110.859 77.8351 109.724 77.8351Z" fill="#1D2024"/>
<path d="M114.697 77.6876V68.2236H116.802V77.6876H114.697ZM120.555 77.6876V68.2236H122.673V77.6876H120.555ZM115.957 73.7331V71.91H121.252V73.7331H115.957Z" fill="#1D2024"/>
<path d="M125.588 77.8351C125.24 77.8351 124.949 77.7145 124.717 77.4732C124.485 77.2319 124.368 76.9414 124.368 76.6018C124.368 76.2444 124.485 75.9494 124.717 75.7171C124.949 75.4758 125.24 75.3552 125.588 75.3552C125.946 75.3552 126.236 75.4758 126.46 75.7171C126.692 75.9494 126.808 76.2444 126.808 76.6018C126.808 76.9414 126.692 77.2319 126.46 77.4732C126.236 77.7145 125.946 77.8351 125.588 77.8351Z" fill="#1D2024"/>
<path d="M131.313 77.8351C130.643 77.8351 130.035 77.6876 129.49 77.3927C128.945 77.0978 128.516 76.6912 128.203 76.1729C127.89 75.6545 127.734 75.0736 127.734 74.4302C127.734 73.7778 127.89 73.1969 128.203 72.6875C128.525 72.1692 128.958 71.7626 129.504 71.4677C130.049 71.1728 130.661 71.0253 131.34 71.0253C131.849 71.0253 132.314 71.1147 132.734 71.2934C133.163 71.4632 133.543 71.7224 133.873 72.0709L132.56 73.3846C132.408 73.2148 132.229 73.0897 132.024 73.0093C131.827 72.9288 131.599 72.8886 131.34 72.8886C131.045 72.8886 130.781 72.9556 130.549 73.0897C130.326 73.2148 130.147 73.3935 130.013 73.6259C129.888 73.8493 129.825 74.1129 129.825 74.4168C129.825 74.7206 129.888 74.9887 130.013 75.2211C130.147 75.4535 130.33 75.6367 130.562 75.7707C130.795 75.9048 131.054 75.9718 131.34 75.9718C131.608 75.9718 131.845 75.9271 132.05 75.8377C132.265 75.7394 132.448 75.6054 132.6 75.4356L133.9 76.7493C133.561 77.1068 133.176 77.3793 132.747 77.567C132.318 77.7457 131.84 77.8351 131.313 77.8351Z" fill="#1D2024"/>
<path d="M137.793 77.8351C137.122 77.8351 136.515 77.6876 135.97 77.3927C135.433 77.0889 135.009 76.6778 134.696 76.1595C134.383 75.6411 134.227 75.0602 134.227 74.4168C134.227 73.7733 134.383 73.1969 134.696 72.6875C135.009 72.1781 135.433 71.776 135.97 71.4811C136.506 71.1772 137.113 71.0253 137.793 71.0253C138.472 71.0253 139.079 71.1728 139.616 71.4677C140.152 71.7626 140.576 72.1692 140.889 72.6875C141.202 73.1969 141.358 73.7733 141.358 74.4168C141.358 75.0602 141.202 75.6411 140.889 76.1595C140.576 76.6778 140.152 77.0889 139.616 77.3927C139.079 77.6876 138.472 77.8351 137.793 77.8351ZM137.793 75.9718C138.087 75.9718 138.347 75.9092 138.57 75.7841C138.793 75.6501 138.963 75.4669 139.079 75.2345C139.205 74.9932 139.267 74.7206 139.267 74.4168C139.267 74.1129 139.205 73.8493 139.079 73.6259C138.954 73.3935 138.78 73.2148 138.557 73.0897C138.342 72.9556 138.087 72.8886 137.793 72.8886C137.507 72.8886 137.252 72.9556 137.029 73.0897C136.805 73.2148 136.631 73.3935 136.506 73.6259C136.381 73.8582 136.318 74.1263 136.318 74.4302C136.318 74.7251 136.381 74.9932 136.506 75.2345C136.631 75.4669 136.805 75.6501 137.029 75.7841C137.252 75.9092 137.507 75.9718 137.793 75.9718Z" fill="#1D2024"/>
<path d="M142.379 77.6876V71.1728H144.43V77.6876H142.379ZM146.548 77.6876V73.8806C146.548 73.5499 146.445 73.2952 146.24 73.1165C146.043 72.9288 145.797 72.835 145.503 72.835C145.297 72.835 145.114 72.8797 144.953 72.969C144.792 73.0495 144.663 73.1656 144.564 73.3176C144.475 73.4695 144.43 73.6572 144.43 73.8806L143.639 73.5321C143.639 73.0137 143.751 72.5714 143.974 72.2049C144.198 71.8296 144.502 71.5436 144.886 71.347C145.27 71.1415 145.704 71.0387 146.186 71.0387C146.642 71.0387 147.049 71.1415 147.406 71.347C147.772 71.5526 148.063 71.8385 148.277 72.2049C148.492 72.5714 148.599 73.0093 148.599 73.5186V77.6876H146.548ZM150.717 77.6876V73.8806C150.717 73.5499 150.614 73.2952 150.409 73.1165C150.212 72.9288 149.966 72.835 149.671 72.835C149.466 72.835 149.283 72.8797 149.122 72.969C148.961 73.0495 148.831 73.1656 148.733 73.3176C148.644 73.4695 148.599 73.6572 148.599 73.8806L147.419 73.7197C147.437 73.1656 147.567 72.692 147.808 72.2988C148.058 71.8966 148.385 71.5883 148.787 71.3738C149.198 71.1504 149.658 71.0387 150.167 71.0387C150.668 71.0387 151.11 71.1459 151.494 71.3604C151.888 71.566 152.196 71.8654 152.419 72.2586C152.652 72.6428 152.768 73.1076 152.768 73.6527V77.6876H150.717Z" fill="#1D2024"/>
</svg>
