<svg width="235" height="116" viewBox="0 0 235 116" fill="none" xmlns="http://www.w3.org/2000/svg">
<path d="M48 78.5V28.5H79V78.5L63.5 68.5L48 78.5Z" fill="#A89161"/>
<path d="M65.1055 56.9512V62.5H63.5386C63.4524 62.1981 63.3949 61.8531 63.3661 61.5225C62.8199 62.27 61.8568 62.6725 60.4768 62.6725C57.6018 62.6725 55.9918 60.4875 55.9918 57.67C55.9918 54.6944 57.7311 52.4519 60.8505 52.4519C63.3949 52.4519 64.9043 53.8894 65.1343 55.5712H62.9924C62.7911 54.91 62.2736 54.1194 60.8218 54.1194C58.7805 54.1194 58.2055 55.83 58.2055 57.5694C58.2055 59.28 58.8668 60.9619 60.8361 60.9619C62.6618 60.9619 63.0068 59.6825 63.0068 58.8056V58.705H60.8361V56.9512H65.1055ZM66.9609 62.5V57.0806C66.9609 56.3331 66.9609 55.6862 66.9465 55.0537H68.9734C69.0021 55.2262 69.0309 55.9594 69.0309 56.3619C69.3615 55.5137 70.1521 54.8956 71.4171 54.8812V56.8506C69.9221 56.8075 69.0309 57.21 69.0309 59.2512V62.5H66.9609Z" fill="white"/>
<path d="M89 78.5V28.5H120V78.5L104.5 68.5L89 78.5Z" fill="#A89161"/>
<path d="M98.0671 52.5956H100.209V58.4894C100.209 60.4012 101.186 60.9619 102.265 60.9619C103.486 60.9619 104.248 60.3006 104.248 58.4894V52.5956H106.405V58.3887C106.405 61.7812 104.421 62.6438 102.236 62.6438C99.9933 62.6438 98.0671 61.7381 98.0671 58.4319V52.5956ZM108.655 52.5956H110.797V62.5H108.655V52.5956Z" fill="white"/>
<path d="M130 78.5V28.5H161V78.5L145.5 68.5L130 78.5Z" fill="#030B1D"/>
<path d="M171 78.5V28.5H202V78.5L186.5 68.5L171 78.5Z" fill="#400735"/>
<path d="M138.885 59.5962H141.041C141.271 60.5881 141.976 61.0337 143.126 61.0337C144.276 61.0337 144.765 60.5737 144.765 59.855C144.765 59.0356 144.29 58.6906 142.594 58.3025C139.891 57.67 139.23 56.6781 139.23 55.3412C139.23 53.6162 140.524 52.4519 142.867 52.4519C145.498 52.4519 146.547 53.8606 146.691 55.3125H144.535C144.42 54.6944 144.089 54.0331 142.81 54.0331C141.933 54.0331 141.415 54.3925 141.415 55.0969C141.415 55.7869 141.832 56.0744 143.442 56.4337C146.317 57.1237 146.95 58.1875 146.95 59.5962C146.95 61.3931 145.584 62.6438 142.968 62.6438C140.452 62.6438 139.115 61.4075 138.885 59.5962ZM147.568 56.6062V55.0537H148.718V53.0412H150.774V55.0537H152.24V56.6062H150.774V60.2862C150.774 60.8469 150.946 61.0625 151.565 61.0625C151.68 61.0625 151.881 61.0625 152.025 61.0481V62.4569C151.622 62.6006 151.061 62.6006 150.645 62.6006C149.193 62.6006 148.718 61.8244 148.718 60.5162V56.6062H147.568Z" fill="white"/>
<path opacity="0.5" d="M147.401 88.5H142.605V88.445C142.605 87.389 143.287 86.311 144.783 85.178C145.949 84.298 146.257 84.012 146.257 83.209C146.257 82.483 145.872 81.944 145.003 81.944C144.123 81.944 143.716 82.395 143.562 83.286H142.616C142.748 82.054 143.529 81.13 145.003 81.13C146.631 81.13 147.258 82.175 147.258 83.187C147.258 84.287 146.796 84.716 145.454 85.75C144.453 86.52 143.925 87.092 143.749 87.653H147.544L147.401 88.5Z" fill="white"/>
<path opacity="0.5" d="M106.401 88.5H101.605V88.445C101.605 87.389 102.287 86.311 103.783 85.178C104.949 84.298 105.257 84.012 105.257 83.209C105.257 82.483 104.872 81.944 104.003 81.944C103.123 81.944 102.716 82.395 102.562 83.286H101.616C101.748 82.054 102.529 81.13 104.003 81.13C105.631 81.13 106.258 82.175 106.258 83.187C106.258 84.287 105.796 84.716 104.454 85.75C103.453 86.52 102.925 87.092 102.749 87.653H106.544L106.401 88.5Z" fill="white"/>
<path d="M186.266 62.5H183.779L181.666 59.0069H181.651L179.481 62.5H177.166L180.458 57.5119L177.267 52.5956H179.754L181.752 55.8731H181.766L183.836 52.5956H186.108L182.916 57.3106L186.266 62.5ZM191.721 52.0062H193.776V60.4587C193.776 61.1344 193.776 61.8244 193.791 62.5H191.821C191.778 62.27 191.735 61.8962 191.721 61.7237C191.361 62.3131 190.714 62.6725 189.607 62.6725C187.724 62.6725 186.531 61.1631 186.531 58.8344C186.531 56.5487 187.796 54.8812 189.909 54.8812C190.987 54.8812 191.562 55.2694 191.721 55.6V52.0062ZM188.644 58.7912C188.644 60.2431 189.205 61.0194 190.226 61.0194C191.634 61.0194 191.807 59.8406 191.807 58.7769C191.807 57.4975 191.62 56.5344 190.269 56.5344C189.191 56.5344 188.644 57.3825 188.644 58.7912Z" fill="#ED6BEE"/>
<path opacity="0.3" d="M0 28H234.5" stroke="url(#paint0_linear_286_36168)"/>
<defs>
<linearGradient id="paint0_linear_286_36168" x1="-9.32383e-07" y1="27.4996" x2="234" y2="27.4995" gradientUnits="userSpaceOnUse">
<stop stop-color="white" stop-opacity="0"/>
<stop offset="0.27159" stop-color="white"/>
<stop offset="0.806411" stop-color="white"/>
<stop offset="1" stop-color="white" stop-opacity="0"/>
</linearGradient>
</defs>
</svg>
